<svg fill="none" height="24" viewBox="0 0 24 24" width="24" xmlns="http://www.w3.org/2000/svg"><g stroke="#141b34" stroke-linejoin="round" stroke-width="1.5"><path d="m9 10c0 3.866 3 7 3 7s3-3.134 3-7c0-3.86599-3-7-3-7s-3 3.13401-3 7z"/><g stroke-linecap="round"><path d="m6.33095 8c-2.21676-.95381-4.33095-1-4.33095-1s.09572 4.3814 2.85714 7.1429c2.76143 2.7614 7.14286 2.8571 7.14286 2.8571s4.3814-.0957 7.1429-2.8571c2.7614-2.7615 2.8571-7.1429 2.8571-7.1429s-2.1142.04619-4.3309 1"/><path d="m12.0207 17c-.1663 1.3333.6397 4 3.4928 4 1.9958 0 2.9937-2 6.4865 0-.4-2.0001-1.2002-3.2801-2.3671-4m-7.6536 0c.1663 1.3333-.6397 4-3.49276 4-1.99586 0-2.99379-2-6.48654 0 .40005-2.0001 1.20018-3.2801 2.36707-4"/></g></g></svg>